<?xml version="1.0" encoding="UTF-8" standalone="no"?>
<svg xmlns="http://www.w3.org/2000/svg"
     xmlns:xlink="http://www.w3.org/1999/xlink"
     width="576pt" height="432pt" viewBox="0 0 576 432">
<title>gl2ps_renderer figure</title>
<desc>
Creator: GL2PS 1.4.0, (C) 1999-2017 C. Geuzaine
For: Octave
CreationDate: Mon Jun 15 19:32:51 2020
</desc>
<defs>
</defs>
<polygon fill="#ffffff" points="0,0 576,0 576,432 0,432"/>
<g>
<polygon fill="#ffffff" points="0,432 576,432 576,0 0,0" shape-rendering="crispEdges"/>
<clipPath id="cp00576432">
  <polygon points="0,432 576,432 576,0 0,0"/>
</clipPath>
<g clip-path="url(#cp00576432)">
<polygon fill="#ffffff" shape-rendering="crispEdges" points="74.88,384.48 521.28,384.48 74.88,32.4"/>
<polygon fill="#ffffff" shape-rendering="crispEdges" points="521.28,384.48 521.28,32.4 74.88,32.4"/>
<polyline fill="none" stroke="#262626" stroke-width="0.5" stroke-linecap="butt" stroke-linejoin="miter" stroke-opacity="0.15" stroke-dasharray="16,0" points="74.88,384.48 74.88,32.4"/>
<polyline fill="none" stroke="#262626" stroke-width="0.5" stroke-linecap="butt" stroke-linejoin="miter" stroke-opacity="0.15" stroke-dasharray="16,0" points="156.044,384.48 156.044,32.4"/>
<polyline fill="none" stroke="#262626" stroke-width="0.5" stroke-linecap="butt" stroke-linejoin="miter" stroke-opacity="0.15" stroke-dasharray="16,0" points="237.207,384.48 237.207,32.4"/>
<polyline fill="none" stroke="#262626" stroke-width="0.5" stroke-linecap="butt" stroke-linejoin="miter" stroke-opacity="0.15" stroke-dasharray="16,0" points="318.371,384.48 318.371,32.4"/>
<polyline fill="none" stroke="#262626" stroke-width="0.5" stroke-linecap="butt" stroke-linejoin="miter" stroke-opacity="0.15" stroke-dasharray="16,0" points="399.535,384.48 399.535,32.4"/>
<polyline fill="none" stroke="#262626" stroke-width="0.5" stroke-linecap="butt" stroke-linejoin="miter" stroke-opacity="0.15" stroke-dasharray="16,0" points="480.698,384.48 480.698,32.4"/>
<polyline fill="none" stroke="#262626" stroke-width="0.5" stroke-linecap="butt" stroke-linejoin="miter" points="74.88,384.48 74.88,380.015"/>
<polyline fill="none" stroke="#262626" stroke-width="0.5" stroke-linecap="butt" stroke-linejoin="miter" points="156.044,384.48 156.044,380.015"/>
<polyline fill="none" stroke="#262626" stroke-width="0.5" stroke-linecap="butt" stroke-linejoin="miter" points="237.207,384.48 237.207,380.015"/>
<polyline fill="none" stroke="#262626" stroke-width="0.5" stroke-linecap="butt" stroke-linejoin="miter" points="318.371,384.48 318.371,380.015"/>
<polyline fill="none" stroke="#262626" stroke-width="0.5" stroke-linecap="butt" stroke-linejoin="miter" points="399.535,384.48 399.535,380.015"/>
<polyline fill="none" stroke="#262626" stroke-width="0.5" stroke-linecap="butt" stroke-linejoin="miter" points="480.698,384.48 480.698,380.015"/>
<text xml:space="preserve" transform="translate(70.38,400.481) rotate(-0,4.5,-11)" font-family="FreeSans" font-weight="normal" font-style="normal" font-size="10"><tspan y="-1" fill="rgb(38,38,38)" x="0 3 ">-6</tspan></text>
<text xml:space="preserve" transform="translate(151.544,400.481) rotate(-0,4.5,-11)" font-family="FreeSans" font-weight="normal" font-style="normal" font-size="10"><tspan y="-1" fill="rgb(38,38,38)" x="0 3 ">-4</tspan></text>
<text xml:space="preserve" transform="translate(232.707,400.481) rotate(-0,4.5,-11)" font-family="FreeSans" font-weight="normal" font-style="normal" font-size="10"><tspan y="-1" fill="rgb(38,38,38)" x="0 3 ">-2</tspan></text>
<text xml:space="preserve" transform="translate(315.371,400.481) rotate(-0,3,-11)" font-family="FreeSans" font-weight="normal" font-style="normal" font-size="10"><tspan y="-1" fill="rgb(38,38,38)" x="0 ">0</tspan></text>
<text xml:space="preserve" transform="translate(396.535,400.481) rotate(-0,3,-11)" font-family="FreeSans" font-weight="normal" font-style="normal" font-size="10"><tspan y="-1" fill="rgb(38,38,38)" x="0 ">2</tspan></text>
<text xml:space="preserve" transform="translate(477.698,400.481) rotate(-0,3,-11)" font-family="FreeSans" font-weight="normal" font-style="normal" font-size="10"><tspan y="-1" fill="rgb(38,38,38)" x="0 ">4</tspan></text>
<polyline fill="none" stroke="#262626" stroke-width="0.5" stroke-linecap="butt" stroke-linejoin="miter" stroke-opacity="0.15" stroke-dasharray="16,0" points="74.88,352.473 521.28,352.473"/>
<polyline fill="none" stroke="#262626" stroke-width="0.5" stroke-linecap="butt" stroke-linejoin="miter" stroke-opacity="0.15" stroke-dasharray="16,0" points="74.88,288.458 521.28,288.458"/>
<polyline fill="none" stroke="#262626" stroke-width="0.5" stroke-linecap="butt" stroke-linejoin="miter" stroke-opacity="0.15" stroke-dasharray="16,0" points="74.88,224.444 521.28,224.444"/>
<polyline fill="none" stroke="#262626" stroke-width="0.5" stroke-linecap="butt" stroke-linejoin="miter" stroke-opacity="0.15" stroke-dasharray="16,0" points="74.88,160.429 521.28,160.429"/>
<polyline fill="none" stroke="#262626" stroke-width="0.5" stroke-linecap="butt" stroke-linejoin="miter" stroke-opacity="0.15" stroke-dasharray="16,0" points="74.88,96.4146 521.28,96.4146"/>
<polyline fill="none" stroke="#262626" stroke-width="0.5" stroke-linecap="butt" stroke-linejoin="miter" stroke-opacity="0.15" stroke-dasharray="16,0" points="74.88,32.4 521.28,32.4"/>
<polyline fill="none" stroke="#262626" stroke-width="0.5" stroke-linecap="butt" stroke-linejoin="miter" points="74.88,352.473 79.348,352.473"/>
<polyline fill="none" stroke="#262626" stroke-width="0.5" stroke-linecap="butt" stroke-linejoin="miter" points="74.88,288.458 79.348,288.458"/>
<polyline fill="none" stroke="#262626" stroke-width="0.5" stroke-linecap="butt" stroke-linejoin="miter" points="74.88,224.444 79.348,224.444"/>
<polyline fill="none" stroke="#262626" stroke-width="0.5" stroke-linecap="butt" stroke-linejoin="miter" points="74.88,160.429 79.348,160.429"/>
<polyline fill="none" stroke="#262626" stroke-width="0.5" stroke-linecap="butt" stroke-linejoin="miter" points="74.88,96.4146 79.348,96.4146"/>
<polyline fill="none" stroke="#262626" stroke-width="0.5" stroke-linecap="butt" stroke-linejoin="miter" points="74.88,32.4 79.348,32.4"/>
<text xml:space="preserve" transform="translate(60.8755,357.973) rotate(-0,9,-5.5)" font-family="FreeSans" font-weight="normal" font-style="normal" font-size="10"><tspan y="-1" fill="rgb(38,38,38)" x="0 3 ">-4</tspan></text>
<text xml:space="preserve" transform="translate(60.8755,293.958) rotate(-0,9,-5.5)" font-family="FreeSans" font-weight="normal" font-style="normal" font-size="10"><tspan y="-1" fill="rgb(38,38,38)" x="0 3 ">-2</tspan></text>
<text xml:space="preserve" transform="translate(63.8755,229.944) rotate(-0,6,-5.5)" font-family="FreeSans" font-weight="normal" font-style="normal" font-size="10"><tspan y="-1" fill="rgb(38,38,38)" x="0 ">0</tspan></text>
<text xml:space="preserve" transform="translate(63.8755,165.929) rotate(-0,6,-5.5)" font-family="FreeSans" font-weight="normal" font-style="normal" font-size="10"><tspan y="-1" fill="rgb(38,38,38)" x="0 ">2</tspan></text>
<text xml:space="preserve" transform="translate(63.8755,101.915) rotate(-0,6,-5.5)" font-family="FreeSans" font-weight="normal" font-style="normal" font-size="10"><tspan y="-1" fill="rgb(38,38,38)" x="0 ">4</tspan></text>
<text xml:space="preserve" transform="translate(63.8755,37.9) rotate(-0,6,-5.5)" font-family="FreeSans" font-weight="normal" font-style="normal" font-size="10"><tspan y="-1" fill="rgb(38,38,38)" x="0 ">6</tspan></text>
<polyline fill="none" stroke="#262626" stroke-width="0.5" stroke-linecap="square" stroke-linejoin="miter" stroke-dasharray="16,0" points="74.88,384.48 521.28,384.48"/>
<polyline fill="none" stroke="#262626" stroke-width="0.5" stroke-linecap="square" stroke-linejoin="miter" stroke-dasharray="16,0" points="74.88,384.48 74.88,32.4"/>
<text xml:space="preserve" transform="translate(286.58,421.481) rotate(-0,11.5,-21)" font-family="FreeSans" font-weight="normal" font-style="normal" font-size="18"><tspan y="-3" fill="rgb(38,38,38)" x="0 13 ">Re</tspan></text>
<text xml:space="preserve" transform="translate(46.8755,208.44) rotate(-90,10,0)" font-family="FreeSans" font-weight="normal" font-style="normal" font-size="18"><tspan y="-3" fill="rgb(38,38,38)" x="0 5 ">Im</tspan></text>
<polyline fill="none" stroke="#000000" stroke-width="1" stroke-linecap="butt" stroke-linejoin="round" stroke-dasharray="4,4,4,4" points="358.953,160.429 237.207,256.451"/>
<polyline fill="none" stroke="#000000" stroke-width="1" stroke-linecap="round" stroke-linejoin="round" points="361.953,160.429 361.38,162.192 359.88,163.282 358.026,163.282 356.526,162.192 355.953,160.429 356.526,158.666 358.026,157.576 359.88,157.576 361.38,158.666 361.953,160.429"/>
<polyline fill="none" stroke="#000000" stroke-width="1" stroke-linecap="round" stroke-linejoin="round" points="240.207,256.451 239.634,258.214 238.134,259.304 236.28,259.304 234.78,258.214 234.207,256.451 234.78,254.688 236.28,253.598 238.134,253.598 239.634,254.688 240.207,256.451"/>
<polyline fill="none" stroke="#00ff00" stroke-width="4" stroke-linecap="butt" stroke-linejoin="round" points="74.88,32.4 78.9382,35.6007 82.9963,38.8015 87.0546,42.0022 91.1127,45.2029 95.1709,48.4036 99.2291,51.6044 103.287,54.8051 107.345,58.0058 111.404,61.2065 115.462,64.4073 119.52,67.608 123.578,70.8087 127.636,74.0095 131.695,77.2102 135.753,80.4109 139.811,83.6116 143.869,86.8124 147.927,90.0131 151.985,93.2138 156.044,96.4146 160.102,99.6153 164.16,102.816 168.218,106.017 172.276,109.217 176.335,112.418 180.393,115.619 184.451,118.82 188.509,122.02 192.567,125.221 196.625,128.422 200.684,131.623 204.742,134.823 208.8,138.024 212.858,141.225 216.916,144.425 220.975,147.626 225.033,150.827 229.091,154.028 233.149,157.228 237.207,160.429 241.265,163.63 245.324,166.831 249.382,170.031 253.44,173.232 257.498,176.433 261.556,179.633 265.615,182.834 269.673,186.035 273.731,189.236 277.789,192.436 281.847,195.637 285.905,198.838 289.964,202.039 294.022,205.239 298.08,208.44 302.138,211.641 306.196,214.841 310.255,218.042 314.313,221.243 318.371,224.444 322.429,227.644 326.487,230.845 330.545,234.046 334.604,237.247 338.662,240.447 342.72,243.648 346.778,246.849 350.836,250.049 354.895,253.25 358.953,256.451 363.011,259.652 367.069,262.852 371.127,266.053 375.185,269.254 379.244,272.455 383.302,275.655 387.36,278.856 391.418,282.057 395.476,285.257 399.535,288.458 403.593,291.659 407.651,294.86 411.709,298.06 415.767,301.261 419.825,304.462 423.884,307.663 427.942,310.863 432,314.064 436.058,317.265 440.116,320.465 444.175,323.666 448.233,326.867 452.291,330.068 456.349,333.268 460.407,336.469 464.465,339.67 468.524,342.871 472.582,346.071 476.64,349.272 480.698,352.473 484.756,355.673 488.815,358.874 492.873,362.075 496.931,365.276 500.989,368.476 505.047,371.677 509.105,374.878 513.164,378.079 517.222,381.279 521.28,384.48"/>
<text xml:space="preserve" transform="translate(363.011,170.728) rotate(-0,-0,-13.5)" font-family="FreeSans" font-weight="normal" font-style="normal" font-size="24"><tspan y="-4" fill="rgb(0,0,0)" x="0 ">a</tspan></text>
<text xml:space="preserve" transform="translate(241.265,266.75) rotate(-0,-0,-13.5)" font-family="FreeSans" font-weight="normal" font-style="normal" font-size="24"><tspan y="-4" fill="rgb(0,0,0)" x="0 ">b</tspan></text>
<polyline fill="none" stroke="#ff0000" stroke-width="1" stroke-linecap="butt" stroke-linejoin="round" stroke-dasharray="4,4,4,4" points="391.418,160.429 391.152,157.155 390.356,153.934 389.046,150.82 387.24,147.864 384.971,145.114 382.274,142.616 379.195,140.41 375.783,138.532 372.094,137.015 368.19,135.882 364.134,135.151 359.993,134.836 355.835,134.942 351.728,135.465 347.74,136.399 343.936,137.727 340.379,139.428 337.126,141.474 334.232,143.831 331.744,146.46 329.702,149.319 328.141,152.36 327.086,155.534 326.554,158.789 326.554,162.07 327.086,165.324 328.141,168.498 329.702,171.539 331.744,174.398 334.232,177.028 337.126,179.385 340.379,181.43 343.936,183.131 347.74,184.459 351.728,185.393 355.835,185.917 359.993,186.022 364.134,185.707 368.19,184.977 372.094,183.843 375.783,182.326 379.195,180.449 382.274,178.243 384.971,175.744 387.24,172.994 389.046,170.038 390.356,166.924 391.152,163.703 391.418,160.429"/>
<polyline fill="none" stroke="#ff0000" stroke-width="1" stroke-linecap="butt" stroke-linejoin="round" stroke-dasharray="4,4,4,4" points="423.884,160.429 423.351,153.88 421.76,147.439 419.138,141.211 415.528,135.299 410.989,129.799 405.596,124.802 399.436,120.39 392.612,116.636 385.236,113.601 377.427,111.334 369.316,109.874 361.034,109.244 352.718,109.454 344.504,110.501 336.528,112.369 328.92,115.025 321.805,118.427 315.3,122.518 309.511,127.232 304.535,132.491 300.452,138.209 297.33,144.292 295.219,150.64 294.155,157.148 294.155,163.71 295.219,170.219 297.33,176.566 300.452,182.649 304.535,188.367 309.511,193.626 315.3,198.34 321.805,202.431 328.92,205.833 336.528,208.49 344.504,210.357 352.718,211.404 361.034,211.614 369.316,210.984 377.427,209.524 385.236,207.258 392.612,204.222 399.436,200.468 405.596,196.056 410.989,191.059 415.528,185.56 419.138,179.647 421.76,173.419 423.351,166.978 423.884,160.429"/>
<polyline fill="none" stroke="#ff0000" stroke-width="1" stroke-linecap="butt" stroke-linejoin="round" stroke-dasharray="4,4,4,4" points="456.349,160.429 455.549,150.606 453.164,140.944 449.231,131.602 443.816,122.733 437.008,114.484 428.917,106.989 419.678,100.371 409.442,94.7392 398.377,90.1862 386.665,86.7867 374.497,84.5963 362.074,83.6511 349.6,83.9666 337.28,85.5376 325.315,88.3383 313.903,92.3228 303.231,97.4255 293.473,103.563 284.791,110.634 277.326,118.522 271.202,127.099 266.518,136.223 263.352,145.745 261.756,155.507 261.756,165.351 263.352,175.113 266.518,184.635 271.202,193.759 277.326,202.336 284.791,210.224 293.473,217.295 303.231,223.433 313.903,228.535 325.315,232.52 337.28,235.321 349.6,236.892 362.074,237.207 374.497,236.262 386.665,234.072 398.377,230.672 409.442,226.119 419.678,220.487 428.917,213.87 437.008,206.374 443.816,198.125 449.231,189.256 453.164,179.914 455.549,170.252 456.349,160.429"/>
<polyline fill="none" stroke="#ff0000" stroke-width="1" stroke-linecap="butt" stroke-linejoin="round" stroke-dasharray="4,4,4,4" points="488.815,160.429 487.748,147.331 484.567,134.449 479.324,121.993 472.104,110.168 463.026,99.1686 452.239,89.175 439.92,80.3513 426.272,72.8426 411.519,66.772 395.902,62.2392 379.679,59.3187 363.115,58.0584 346.483,58.4791 330.056,60.5738 314.103,64.3081 298.887,69.6207 284.657,76.4243 271.647,84.6074 260.07,94.0354 250.117,104.554 241.951,115.989 235.707,128.155 231.486,140.85 229.358,153.867 229.358,166.991 231.486,180.008 235.707,192.704 241.951,204.869 250.117,216.305 260.07,226.823 271.647,236.251 284.657,244.434 298.887,251.238 314.103,256.55 330.056,260.284 346.483,262.379 363.115,262.8 379.679,261.539 395.902,258.619 411.519,254.086 426.272,248.016 439.92,240.507 452.239,231.683 463.026,221.69 472.104,210.69 479.324,198.865 484.567,186.409 487.748,173.527 488.815,160.429"/>
<polyline fill="none" stroke="#ff0000" stroke-width="1" stroke-linecap="butt" stroke-linejoin="round" stroke-dasharray="4,4,4,4" points="521.28,160.429 519.947,144.057 515.971,127.954 509.417,112.384 500.392,97.603 489.044,83.8535 475.56,71.3615 460.162,60.3319 443.102,50.9459 424.66,43.3577 405.139,37.6917 384.86,34.0411 364.156,32.4658 343.366,32.9916 322.832,35.61 302.891,40.2778 283.87,46.9186 266.083,55.4232 249.82,65.652 235.349,77.437 222.908,90.5847 212.701,104.879 204.895,120.086 199.619,135.955 196.959,152.226 196.959,168.632 199.619,184.903 204.895,200.772 212.701,215.979 222.908,230.273 235.349,243.421 249.82,255.206 266.083,265.435 283.87,273.94 302.891,280.58 322.832,285.248 343.366,287.867 364.156,288.392 384.86,286.817 405.139,283.166 424.66,277.501 443.102,269.912 460.162,260.526 475.56,249.497 489.044,237.005 500.392,223.255 509.417,208.474 515.971,192.904 519.947,176.801 521.28,160.429"/>
<polyline fill="none" stroke="#0000ff" stroke-width="1" stroke-linecap="butt" stroke-linejoin="round" stroke-dasharray="4,4,4,4" points="269.673,256.451 269.406,253.177 268.611,249.956 267.3,246.842 265.495,243.886 263.226,241.136 260.529,238.637 257.449,236.431 254.037,234.554 250.349,233.037 246.445,231.903 242.389,231.173 238.248,230.858 234.09,230.963 229.983,231.487 225.995,232.421 222.191,233.749 218.633,235.45 215.381,237.495 212.487,239.853 209.998,242.482 207.957,245.341 206.396,248.382 205.34,251.556 204.809,254.81 204.809,258.091 205.34,261.346 206.396,264.52 207.957,267.561 209.998,270.42 212.487,273.049 215.381,275.406 218.633,277.452 222.191,279.153 225.995,280.481 229.983,281.415 234.09,281.938 238.248,282.044 242.389,281.729 246.445,280.998 250.349,279.865 254.037,278.348 257.449,276.47 260.529,274.264 263.226,271.766 265.495,269.016 267.3,266.06 268.611,262.946 269.406,259.725 269.673,256.451"/>
<polyline fill="none" stroke="#0000ff" stroke-width="1" stroke-linecap="butt" stroke-linejoin="round" stroke-dasharray="4,4,4,4" points="302.138,256.451 301.605,249.902 300.015,243.461 297.393,237.233 293.783,231.32 289.244,225.821 283.85,220.824 277.691,216.412 270.867,212.658 263.49,209.622 255.682,207.356 247.57,205.896 239.288,205.266 230.972,205.476 222.759,206.523 214.782,208.39 207.174,211.047 200.059,214.449 193.554,218.54 187.766,223.254 182.789,228.513 178.707,234.231 175.584,240.314 173.474,246.661 172.41,253.17 172.41,259.732 173.474,266.24 175.584,272.588 178.707,278.671 182.789,284.389 187.766,289.648 193.554,294.362 200.059,298.453 207.174,301.855 214.782,304.511 222.759,306.379 230.972,307.426 239.288,307.636 247.57,307.006 255.682,305.546 263.49,303.279 270.867,300.244 277.691,296.49 283.85,292.078 289.244,287.081 293.783,281.581 297.393,275.669 300.015,269.441 301.605,263 302.138,256.451"/>
<polyline fill="none" stroke="#0000ff" stroke-width="1" stroke-linecap="butt" stroke-linejoin="round" stroke-dasharray="4,4,4,4" points="334.604,256.451 333.804,246.628 331.418,236.966 327.486,227.624 322.071,218.755 315.262,210.506 307.172,203.01 297.933,196.393 287.697,190.761 276.632,186.208 264.919,182.808 252.752,180.618 240.329,179.673 227.855,179.988 215.535,181.559 203.57,184.36 192.158,188.345 181.485,193.447 171.728,199.585 163.045,206.656 155.581,214.544 149.456,223.121 144.773,232.245 141.607,241.767 140.011,251.529 140.011,261.373 141.607,271.135 144.773,280.657 149.456,289.781 155.581,298.358 163.045,306.246 171.728,313.317 181.485,319.454 192.158,324.557 203.57,328.542 215.535,331.342 227.855,332.913 240.329,333.229 252.752,332.284 264.919,330.093 276.632,326.694 287.697,322.141 297.933,316.509 307.172,309.891 315.262,302.396 322.071,294.147 327.486,285.278 331.418,275.936 333.804,266.274 334.604,256.451"/>
<polyline fill="none" stroke="#0000ff" stroke-width="1" stroke-linecap="butt" stroke-linejoin="round" stroke-dasharray="4,4,4,4" points="367.069,256.451 366.003,243.353 362.822,230.471 357.578,218.015 350.358,206.19 341.28,195.19 330.493,185.197 318.175,176.373 304.527,168.864 289.773,162.794 274.157,158.261 257.933,155.341 241.37,154.08 224.738,154.501 208.31,156.596 192.358,160.33 177.141,165.643 162.911,172.446 149.901,180.629 138.325,190.057 128.372,200.575 120.206,212.011 113.961,224.176 109.74,236.872 107.612,249.889 107.612,263.013 109.74,276.03 113.961,288.725 120.206,300.891 128.372,312.326 138.325,322.845 149.901,332.273 162.911,340.456 177.141,347.259 192.358,352.572 208.31,356.306 224.738,358.401 241.37,358.822 257.933,357.561 274.157,354.641 289.773,350.108 304.527,344.037 318.175,336.529 330.493,327.705 341.28,317.711 350.358,306.712 357.578,294.887 362.822,282.431 366.003,269.549 367.069,256.451"/>
<polyline fill="none" stroke="#0000ff" stroke-width="1" stroke-linecap="butt" stroke-linejoin="round" stroke-dasharray="4,4,4,4" points="399.535,256.451 398.202,240.079 394.226,223.976 387.671,208.406 378.646,193.625 367.299,179.875 353.815,167.383 338.417,156.354 321.357,146.968 302.915,139.38 283.394,133.714 263.115,130.063 242.41,128.488 221.62,129.013 201.086,131.632 181.145,136.3 162.125,142.94 144.337,151.445 128.074,161.674 113.604,173.459 101.163,186.607 90.9554,200.901 83.1496,216.108 77.8734,231.977 75.2135,248.248 75.2135,264.654 77.8734,280.925 83.1496,296.794 90.9554,312.001 101.163,326.295 113.604,339.443 128.074,351.228 144.337,361.457 162.125,369.961 181.145,376.602 201.086,381.27 221.62,383.888 242.41,384.414 263.115,382.839 283.394,379.188 302.915,373.522 321.357,365.934 338.417,356.548 353.815,345.519 367.299,333.026 378.646,319.277 387.671,304.496 394.226,288.926 398.202,272.823 399.535,256.451"/>
</g>
</g>
</svg>
